<svg width="21" height="28" viewBox="0 0 21 28" fill="none" xmlns="http://www.w3.org/2000/svg">
<path d="M10.5 27.2938C10.4347 27.2275 10.3611 27.1522 10.2797 27.0683C9.91798 26.6952 9.40438 26.1517 8.79949 25.4728C7.58877 24.114 6.01702 22.218 4.56614 20.0638C3.11302 17.9063 1.79479 15.5099 1.07399 13.149C0.352668 10.7864 0.244804 8.51196 1.13465 6.54964C4.79242 -1.51655 16.2076 -1.51655 19.8653 6.54964C20.7552 8.51196 20.6473 10.7864 19.926 13.149C19.2052 15.5099 17.887 17.9063 16.4339 20.0638C14.983 22.218 13.4112 24.114 12.2005 25.4728C11.5956 26.1517 11.082 26.6952 10.7203 27.0683C10.6389 27.1522 10.5653 27.2275 10.5 27.2938Z" stroke="#3D3D3D"/>
<circle cx="10.5" cy="10.5" r="2.5" fill="#DE0814"/>
</svg>
