<svg width="30" height="29" viewBox="0 0 30 29" fill="none" xmlns="http://www.w3.org/2000/svg">
<path d="M26.526 14.3765C26.6941 14.5499 26.9666 14.5499 27.1347 14.3765L29.8739 11.5504C30.042 11.377 30.042 11.0958 29.8739 10.9224C29.7058 10.749 29.4333 10.749 29.2652 10.9224L26.8303 13.4345L24.3954 10.9224C24.2273 10.749 23.9548 10.749 23.7867 10.9224C23.6186 11.0958 23.6186 11.377 23.7867 11.5504L26.526 14.3765ZM13.6304 27.2368C6.57799 27.2368 0.860866 21.3385 0.860866 14.0625H0C0 21.829 6.1025 28.125 13.6304 28.125V27.2368ZM0.860866 14.0625C0.860866 6.78653 6.57799 0.888158 13.6304 0.888158V0C6.1025 0 0 6.29597 0 14.0625H0.860866ZM13.6304 0.888158C20.6828 0.888158 26.3999 6.78653 26.3999 14.0625H27.2607C27.2607 6.29597 21.1582 0 13.6304 0V0.888158Z" fill="black"/>
<path d="M10.6132 20.625V18.0937H9.375V16.875H10.6132V15.0938H9.375V13.875H10.6132V7.5H16.0967C16.8986 7.5 17.5413 7.75624 18.0248 8.26877C18.5082 8.78124 18.75 9.46248 18.75 10.3125V12.2813C18.75 13.1312 18.5082 13.8125 18.0248 14.325C17.5413 14.8375 16.8986 15.0938 16.0967 15.0938H11.763V16.875H17.0696V18.0937H11.763V20.625H10.6132ZM11.763 13.875H16.0083C17.0696 13.875 17.6002 13.3125 17.6002 12.1875V10.4062C17.6002 9.28124 17.0696 8.71878 16.0083 8.71878H11.763V13.875Z" fill="#E81D25"/>
</svg>
