<svg width="24" height="29" viewBox="0 0 24 29" fill="none" xmlns="http://www.w3.org/2000/svg">
<path d="M21.8718 1H2.12821C1.50511 1 1 1.48353 1 2.08V26.92C1 27.5165 1.50511 28 2.12821 28H21.8718C22.4949 28 23 27.5165 23 26.92V2.08C23 1.48353 22.4949 1 21.8718 1Z" stroke="black"/>
<path d="M4.94872 7H8.47436H15.5256H19.0513M4.94872 9.7H12H15.5256H19.0513M4.94872 12.4H8.47436H12" stroke="black"/>
<path d="M7 22.5741L8.60667 21.0901C9.1747 20.5655 10.0952 20.9684 10.0952 21.7416V21.7416C10.0952 22.5476 11.0835 22.9357 11.632 22.3451L14.2267 19.5507C14.8015 18.9318 15.8372 19.26 15.9505 20.097L16.1685 21.7082C16.2356 22.2041 16.659 22.5741 17.1595 22.5741H20" stroke="#DE0814"/>
</svg>
