<svg width="30" height="31" viewBox="0 0 30 31" fill="none" xmlns="http://www.w3.org/2000/svg">
<mask id="mask0_91_514" style="mask-type:luminance" maskUnits="userSpaceOnUse" x="0" y="0" width="30" height="31">
<path d="M30 0.5H0V30.5H30V0.5Z" fill="white"/>
</mask>
<g mask="url(#mask0_91_514)">
<path d="M15 19.7859V23.2145C15 23.6879 14.6162 24.0716 14.1428 24.0716H9.21427H7.17855C6.70515 24.0716 6.32141 24.4553 6.32141 24.9287V33.0716" stroke="black"/>
<path d="M15 9.49993V6.07136C15 5.59796 15.3837 5.21422 15.8571 5.21422H20.7857H22.8214C23.2948 5.21422 23.6786 4.83047 23.6786 4.35707V-8.71436" stroke="black"/>
<path d="M15.3594 12.6248C15.1904 12.3646 14.8096 12.3646 14.6406 12.6248L12.0896 16.5523C11.9045 16.8374 12.1091 17.2143 12.449 17.2143H17.551C17.891 17.2143 18.0956 16.8374 17.9104 16.5523L15.3594 12.6248Z" fill="#E81D25"/>
</g>
</svg>
