<svg width="15" height="15" viewBox="0 0 15 15" fill="none" xmlns="http://www.w3.org/2000/svg">
<g clip-path="url(#clip0_91_871)">
<path d="M13.75 8.33812C13.0823 8.10163 12.3613 8.05906 11.6705 8.21536C10.9796 8.37165 10.3471 8.72042 9.84627 9.22127C9.34542 9.72213 8.99665 10.3546 8.84036 11.0455C8.68406 11.7363 8.72663 12.4573 8.96312 13.125H1.875C1.70924 13.125 1.55027 13.0592 1.43306 12.9419C1.31585 12.8247 1.25 12.6658 1.25 12.5V2.5C1.25 2.33424 1.31585 2.17527 1.43306 2.05806C1.55027 1.94085 1.70924 1.875 1.875 1.875H13.125C13.2908 1.875 13.4497 1.94085 13.5669 2.05806C13.6842 2.17527 13.75 2.33424 13.75 2.5V8.33812ZM7.5375 7.30187L3.53 3.89875L2.72063 4.85125L7.54562 8.94813L12.2837 4.84812L11.4663 3.9025L7.53813 7.30187H7.5375ZM11.875 13.75L9.665 11.54L10.5494 10.6562L11.875 11.9825L14.085 9.7725L14.9688 10.6562L11.875 13.75Z" fill="#3D3D3D"/>
</g>
<defs>
<clipPath id="clip0_91_871">
<rect width="15" height="15" fill="white"/>
</clipPath>
</defs>
</svg>
