<svg width="15" height="15" viewBox="0 0 15 15" fill="none" xmlns="http://www.w3.org/2000/svg">
<g clip-path="url(#clip0_91_881)">
<path d="M11.4775 10.8525L7.5 14.83L3.5225 10.8525C2.73584 10.0658 2.20012 9.06356 1.98308 7.97242C1.76604 6.88128 1.87744 5.75028 2.30319 4.72245C2.72893 3.69462 3.4499 2.81612 4.37493 2.19804C5.29995 1.57996 6.38749 1.25006 7.5 1.25006C8.61252 1.25006 9.70005 1.57996 10.6251 2.19804C11.5501 2.81612 12.2711 3.69462 12.6968 4.72245C13.1226 5.75028 13.234 6.88128 13.0169 7.97242C12.7999 9.06356 12.2642 10.0658 11.4775 10.8525ZM7.5 8.12501C7.83152 8.12501 8.14947 7.99332 8.38389 7.7589C8.61831 7.52448 8.75 7.20653 8.75 6.87501C8.75 6.54349 8.61831 6.22555 8.38389 5.99113C8.14947 5.75671 7.83152 5.62501 7.5 5.62501C7.16848 5.62501 6.85054 5.75671 6.61612 5.99113C6.3817 6.22555 6.25 6.54349 6.25 6.87501C6.25 7.20653 6.3817 7.52448 6.61612 7.7589C6.85054 7.99332 7.16848 8.12501 7.5 8.12501Z" fill="#3D3D3D"/>
</g>
<defs>
<clipPath id="clip0_91_881">
<rect width="15" height="15" fill="white"/>
</clipPath>
</defs>
</svg>
