<svg width="15" height="15" viewBox="0 0 15 15" fill="none" xmlns="http://www.w3.org/2000/svg">
<g clip-path="url(#clip0_167_410)">
<path d="M13.125 10.2625V12.4725C13.1251 12.6307 13.0651 12.7831 12.9572 12.8989C12.8494 13.0146 12.7016 13.0852 12.5437 13.0963C12.2706 13.115 12.0475 13.125 11.875 13.125C6.35188 13.125 1.875 8.64813 1.875 3.125C1.875 2.9525 1.88438 2.72938 1.90375 2.45625C1.91483 2.2984 1.98536 2.15063 2.10113 2.04276C2.21689 1.93488 2.36926 1.87493 2.5275 1.875H4.7375C4.81502 1.87492 4.88981 1.90366 4.94733 1.95564C5.00485 2.00761 5.041 2.07911 5.04875 2.15625C5.06313 2.3 5.07625 2.41438 5.08875 2.50125C5.21296 3.36808 5.4675 4.21115 5.84375 5.00188C5.90313 5.12688 5.86438 5.27625 5.75187 5.35625L4.40313 6.32C5.22778 8.24153 6.75909 9.77284 8.68062 10.5975L9.64313 9.25125C9.68247 9.19625 9.73986 9.1568 9.80531 9.13978C9.87076 9.12276 9.9401 9.12926 10.0013 9.15812C10.7919 9.53367 11.6347 9.78757 12.5013 9.91125C12.5881 9.92375 12.7025 9.9375 12.845 9.95125C12.922 9.95915 12.9934 9.99536 13.0452 10.0529C13.0971 10.1104 13.1257 10.1851 13.1256 10.2625H13.125Z" fill="#3D3D3D"/>
</g>
<defs>
<clipPath id="clip0_167_410">
<rect width="15" height="15" fill="white"/>
</clipPath>
</defs>
</svg>
