<svg width="20" height="20" viewBox="0 0 20 20" fill="none" xmlns="http://www.w3.org/2000/svg">
<g clip-path="url(#clip0_149_395)">
<path d="M0 10C0 15.5228 4.47715 20 10 20C15.5228 20 20 15.5228 20 10C20 4.47715 15.5228 0 10 0C4.47715 0 0 4.47715 0 10Z" fill="#7D3DAF"/>
<path d="M16.3252 6.44682L16.3213 6.43102C16.0018 5.13947 14.5615 3.75357 13.2388 3.46524L13.2239 3.46217C11.0844 3.05403 8.91517 3.05403 6.77619 3.46217L6.76083 3.46524C5.43856 3.75357 3.99823 5.13947 3.67831 6.43102L3.6748 6.44682C3.27983 8.25052 3.27983 10.0797 3.6748 11.8834L3.67831 11.8992C3.98459 13.1356 5.31765 14.4578 6.59099 14.8215V16.2632C6.59099 16.785 7.22689 17.0413 7.58851 16.6647L9.04924 15.1463C9.36605 15.1641 9.68304 15.1739 10 15.1739C11.077 15.1739 12.1544 15.0721 13.2239 14.8681L13.2388 14.865C14.5615 14.5767 16.0018 13.1908 16.3213 11.8992L16.3252 11.8834C16.7202 10.0797 16.7202 8.25052 16.3252 6.44682ZM15.1693 11.6218C14.956 12.4644 13.8624 13.512 12.9935 13.7055C11.8559 13.9218 10.7093 14.0143 9.56393 13.9825C9.54115 13.9819 9.51925 13.9907 9.50337 14.0071C9.34082 14.1739 8.43682 15.1019 8.43682 15.1019L7.30238 16.2662C7.21943 16.3527 7.07373 16.2939 7.07373 16.1745V13.7862C7.07373 13.7467 7.04556 13.7132 7.00681 13.7056C7.00659 13.7055 7.00637 13.7055 7.00615 13.7054C6.13722 13.5119 5.04403 12.4644 4.8303 11.6218C4.47483 9.99141 4.47483 8.33868 4.8303 6.70834C5.04403 5.86573 6.13722 4.81819 7.00615 4.62465C8.99285 4.2468 11.0072 4.2468 12.9935 4.62465C13.8628 4.81819 14.956 5.86573 15.1693 6.70834C15.5252 8.33873 15.5252 9.99146 15.1693 11.6218Z" fill="white"/>
<path d="M11.8902 12.7243C11.7566 12.6837 11.6293 12.6564 11.5111 12.6074C10.286 12.0991 9.15846 11.4434 8.26534 10.4382C7.75746 9.86656 7.35994 9.22122 7.02391 8.53827C6.86456 8.2144 6.73027 7.87784 6.59339 7.54348C6.46858 7.23856 6.65242 6.92355 6.846 6.69381C7.02764 6.4782 7.26137 6.31319 7.51451 6.19158C7.71208 6.09666 7.90697 6.15138 8.05127 6.31885C8.36321 6.68091 8.64974 7.06148 8.88176 7.48116C9.02443 7.73929 8.98529 8.05483 8.72671 8.23051C8.66387 8.27321 8.6066 8.32332 8.54806 8.37155C8.49671 8.41382 8.44839 8.45652 8.41319 8.51374C8.34886 8.61845 8.34579 8.74195 8.38721 8.85579C8.70609 9.73209 9.24355 10.4135 10.1256 10.7805C10.2667 10.8392 10.4085 10.9076 10.571 10.8887C10.8434 10.8568 10.9315 10.5582 11.1223 10.4021C11.3089 10.2496 11.5472 10.2476 11.7481 10.3747C11.9491 10.5019 12.1439 10.6384 12.3375 10.7764C12.5276 10.9118 12.7168 11.0443 12.8921 11.1987C13.0607 11.3472 13.1187 11.5419 13.0238 11.7434C12.85 12.1124 12.5972 12.4194 12.2324 12.6153C12.1294 12.6706 12.0064 12.6885 11.8902 12.7243C12.0064 12.6885 11.7566 12.6837 11.8902 12.7243Z" fill="white"/>
<path d="M10.0034 5.76968C11.6058 5.81457 12.922 6.87805 13.2041 8.46232C13.2521 8.73226 13.2692 9.00826 13.2906 9.28224C13.2996 9.39748 13.2343 9.50697 13.11 9.50847C12.9815 9.51 12.9237 9.40253 12.9154 9.28733C12.8989 9.0593 12.8874 8.83026 12.856 8.60412C12.6901 7.41039 11.7382 6.42278 10.55 6.21086C10.3712 6.17896 10.1882 6.17057 10.0071 6.15157C9.89263 6.13955 9.74267 6.13261 9.71731 5.99029C9.69602 5.87097 9.79674 5.77596 9.91036 5.76986C9.94126 5.76814 9.97233 5.76955 10.0034 5.76968C11.6058 5.81457 9.97233 5.76955 10.0034 5.76968Z" fill="white"/>
<path d="M12.4387 8.92662C12.436 8.94664 12.4346 8.99368 12.4229 9.03801C12.3804 9.19889 12.1365 9.21903 12.0803 9.05666C12.0637 9.00847 12.0612 8.95366 12.0611 8.90178C12.0605 8.56237 11.9867 8.22331 11.8156 7.92801C11.6396 7.62449 11.3708 7.36934 11.0556 7.21495C10.8649 7.12161 10.6587 7.06359 10.4498 7.02901C10.3585 7.01392 10.2662 7.00474 10.1744 6.99197C10.0632 6.97652 10.0038 6.90565 10.0091 6.79607C10.014 6.69337 10.0891 6.61952 10.201 6.62583C10.5687 6.64672 10.9239 6.7262 11.2509 6.89933C11.9158 7.25142 12.2955 7.80719 12.4064 8.5493C12.4114 8.58291 12.4195 8.61622 12.422 8.64997C12.4283 8.73331 12.4323 8.81673 12.4387 8.92662C12.436 8.94664 12.4323 8.81673 12.4387 8.92662Z" fill="white"/>
<path d="M11.4419 8.88783C11.3078 8.89025 11.2361 8.81604 11.2223 8.69311C11.2127 8.6074 11.2051 8.52055 11.1846 8.43717C11.1443 8.27295 11.057 8.12076 10.9189 8.02013C10.8537 7.9726 10.7798 7.93797 10.7023 7.91564C10.604 7.88724 10.5019 7.89505 10.4037 7.87101C10.2972 7.84489 10.2383 7.75862 10.255 7.65864C10.2702 7.56767 10.3588 7.49666 10.4582 7.50386C11.0795 7.54871 11.5235 7.86991 11.5869 8.6013C11.5913 8.65291 11.5966 8.70746 11.5852 8.75683C11.5655 8.84136 11.503 8.88371 11.4419 8.88783C11.503 8.88371 11.3078 8.89025 11.4419 8.88783Z" fill="white"/>
</g>
<defs>
<clipPath id="clip0_149_395">
<rect width="20" height="20" fill="white"/>
</clipPath>
</defs>
</svg>
