<svg width="20" height="20" viewBox="0 0 20 20" fill="none" xmlns="http://www.w3.org/2000/svg">
<g clip-path="url(#clip0_149_388)">
<path d="M0 10C0 15.5228 4.47715 20 10 20C15.5228 20 20 15.5228 20 10C20 4.47715 15.5228 0 10 0C4.47715 0 0 4.47715 0 10Z" fill="#1BD741"/>
<path d="M3.66013 16.3543L4.54819 13.2002C3.97711 12.23 3.67644 11.1261 3.67644 9.99218C3.67644 6.50067 6.51698 3.66013 10.0085 3.66013C13.5 3.66013 16.3405 6.50067 16.3405 9.99218C16.3405 13.4837 13.5 16.3242 10.0085 16.3242C8.92056 16.3242 7.85527 16.0458 6.91286 15.517L3.66013 16.3543ZM7.07915 14.365L7.27297 14.4833C8.09464 14.985 9.04058 15.2501 10.0085 15.2501C12.9077 15.2501 15.2664 12.8914 15.2664 9.99218C15.2664 7.09295 12.9077 4.73425 10.0085 4.73425C7.10927 4.73425 4.75056 7.09295 4.75056 9.99218C4.75056 11.0024 5.03767 11.9834 5.58078 12.8291L5.71131 13.0324L5.19991 14.8487L7.07915 14.365Z" fill="white"/>
<path d="M8.22973 7.04505L7.81886 7.02266C7.6898 7.01561 7.56321 7.05874 7.46567 7.14348C7.26648 7.31645 6.94798 7.65086 6.85015 8.08664C6.70427 8.73641 6.92972 9.53205 7.51321 10.3277C8.0967 11.1234 9.18407 12.3964 11.1069 12.9401C11.7265 13.1153 12.2139 12.9972 12.59 12.7566C12.8878 12.5661 13.0931 12.2603 13.1671 11.9146L13.2327 11.6082C13.2536 11.5108 13.2041 11.412 13.1137 11.3703L11.7251 10.7302C11.6349 10.6887 11.528 10.7149 11.4674 10.7935L10.9222 11.5002C10.8811 11.5536 10.8106 11.5748 10.7469 11.5524C10.3736 11.4212 9.12308 10.8975 8.43692 9.57574C8.40716 9.51841 8.41456 9.44883 8.45677 9.39994L8.97776 8.79723C9.03099 8.73569 9.04443 8.64916 9.01245 8.57437L8.41388 7.17399C8.38202 7.09944 8.31061 7.04947 8.22973 7.04505Z" fill="white"/>
</g>
<defs>
<clipPath id="clip0_149_388">
<rect width="20" height="20" fill="white"/>
</clipPath>
</defs>
</svg>
